<svg xmlns="http://www.w3.org/2000/svg"
     width="273.479"
     height="23.542"
     viewBox="0 0 273.479 23.542">
  <g id="Group_1369"
     data-name="Group 1369"
     transform="translate(-86 -62.458)">
    <g id="Group_1367"
       data-name="Group 1367">
      <g id="Group_1280"
         data-name="Group 1280"
         transform="translate(72 -103.493)">
        <g id="Group_578"
           data-name="Group 578"
           transform="translate(14 165.951)">
          <path id="Path_629"
                data-name="Path 629"
                d="M3287.833,565.5h4.307v13.242h-4.307Z"
                transform="translate(-3267.914 -556.033)"
                fill="#01008c" />
          <g id="Group_577"
             data-name="Group 577"
             transform="translate(0)">
            <path id="Path_628"
                  data-name="Path 628"
                  d="M3273.5,581.3V558.833h3.242l8.971,11.681,7.474-11.681h4.864l-11.118,17.835h-2.053l-7.39-9.8.521,14.429Z"
                  transform="translate(-3273.5 -558.631)"
                  fill="#01008c" />
            <path id="Path_632"
                  data-name="Path 632"
                  d="M1.748-9.427V6.251H8.919c8.28-.064,12.4-5.62,12.4-11.176S17.2-16.036,8.919-16.1H1.748v4.39H5.905v3.832ZM8.919-11.71C19.9-11.71,19.867,2.2,8.919,2.2H5.905V-11.71Z"
                  transform="translate(49.188 16.556)"
                  fill="#01008c" />
            <rect id="Rectangle_64"
                  data-name="Rectangle 64"
                  width="4"
                  height="22"
                  transform="translate(74.156 0.542)"
                  fill="#01008c" />
            <path id="Path_634"
                  data-name="Path 634"
                  d="M3381.626,557.688l-8.876,22.536,3.921.173,2.284-5.23h9.393l2.068,5.23h4.395l-6.463-16.051h-3.964l2.327,7.023h-6.2l4.826-13.68Z"
                  transform="translate(-3290.54 -557.688)"
                  fill="#01008c" />
          </g>
          <g id="Group_579"
             data-name="Group 579"
             transform="translate(28.77 0.203)">
            <path id="Path_631"
                  data-name="Path 631"
                  d="M3302.24,565.125l-1.526,4h9.132v-4Z"
                  transform="translate(-3294.163 -556.381)"
                  fill="#01008c" />
            <path id="Path_630"
                  data-name="Path 630"
                  d="M3296,558.833v22.3h17.669v-3.846h-13.1V563.32h13.1v-4.487Z"
                  transform="translate(-3296 -558.833)"
                  fill="#01008c" />
          </g>
        </g>
        <g id="Group_585"
           data-name="Group 585"
           transform="translate(129.935 166.086)">
          <g id="Group_580"
             data-name="Group 580"
             transform="translate(25.827 0.281)">
            <path id="Path_636"
                  data-name="Path 636"
                  d="M3391.688,557.938v22.709h4V566.84l10.857,13.807h5.559l-17.892-22.709Z"
                  transform="translate(-3391.688 -557.938)"
                  fill="#01008c" />
            <path id="Path_637"
                  data-name="Path 637"
                  d="M3402.875,557.938l.347,14.244h3.735V557.938Z"
                  transform="translate(-3387.328 -557.938)"
                  fill="#01008c" />
          </g>
          <g id="Group_581"
             data-name="Group 581"
             transform="translate(75.386 0.438)">
            <path id="Path_640"
                  data-name="Path 640"
                  d="M3426.75,557.688v15.892l3.822-2.125V557.688Z"
                  transform="translate(-3426.75 -557.688)"
                  fill="#01008c" />
            <rect id="Rectangle_65"
                  data-name="Rectangle 65"
                  width="14"
                  height="4"
                  transform="translate(-0.165 17.969)"
                  fill="#01008c" />
          </g>
          <g id="Group_582"
             data-name="Group 582"
             transform="translate(89.873)">
            <path id="Path_641"
                  data-name="Path 641"
                  d="M3441.826,556.875l8.165,12.5v9.818h-4.517v-9.282l-8.6-13.031Z"
                  transform="translate(-3436.875 -556.615)"
                  fill="#01008c" />
            <path id="Path_642"
                  data-name="Path 642"
                  d="M3445.563,565.634l5.385-8.946h4.343l-5.472,8.946Z"
                  transform="translate(-3433.49 -556.688)"
                  fill="#01008c" />
          </g>
          <g id="Group_583"
             data-name="Group 583"
             transform="translate(115.458 0.296)">
            <path id="Path_643"
                  data-name="Path 643"
                  d="M3457.083,557.688l.463,22.225h4.169v-8.391h11.234v-4.257h-11.234v-9.577Z"
                  transform="translate(-3457.083 -557.427)"
                  fill="#01008c" />
            <path id="Path_644"
                  data-name="Path 644"
                  d="M3463.325,557.5h9.728v4.053h-10.886Z"
                  transform="translate(-3455.103 -557.5)"
                  fill="#01008c" />
          </g>
          <g id="Group_584"
             data-name="Group 584"
             transform="translate(135.077 0.25)">
            <path id="Path_645"
                  data-name="Path 645"
                  d="M3472.427,557.5h5.212l16.329,22.278h-5.559l-5.443-8.015-6.254,8.015H3471.5l8.642-11.713Z"
                  transform="translate(-3471.5 -557.037)"
                  fill="#fa0" />
            <path id="Path_646"
                  data-name="Path 646"
                  d="M3480.688,564.492l4.777-7.325h4.6l-4.951,7.325Z"
                  transform="translate(-3467.92 -557.167)"
                  fill="#fa0" />
          </g>
          <path id="Path_635"
                data-name="Path 635"
                d="M3381.626,557.688l-8.876,22.536,3.921.173,2.284-5.23h9.393l2.068,5.23h4.395l-6.463-16.051h-3.964l2.327,7.023h-6.2l4.826-13.68Z"
                transform="translate(-3372.75 -557.406)"
                fill="#01008c" />
          <path id="Path_636-2"
                data-name="Path 636"
                d="M3381.626,557.688l-8.876,22.536,3.921.173,2.284-5.23h9.393l2.068,5.23h4.395l-6.463-16.051h-3.964l2.327,7.023h-6.2l4.826-13.68Z"
                transform="translate(-3323.203 -556.99)"
                fill="#01008c" />
        </g>
      </g>
    </g>
  </g>
</svg>
