<svg height="512" viewBox="0 0 256 256" width="512" xmlns="http://www.w3.org/2000/svg"><path d="m208.331 120.261a2.5 2.5 0 0 1 -2.493-2.34c-1.446-22.541-24.247-32.807-44.819-32.807a44.018 44.018 0 0 0 -5.695.383 2.5 2.5 0 0 1 -2.324-.985c-10.892-14.607-27.01-23.327-43.117-23.327-27.827 0-50.78 20.271-53.391 47.153a2.5 2.5 0 1 1 -4.976-.484c2.86-29.456 27.953-51.669 58.367-51.669 17.245 0 34.432 9.014 46.246 24.185a48.158 48.158 0 0 1 4.894-.256c22.831 0 48.157 11.731 49.809 37.487a2.5 2.5 0 0 1 -2.334 2.654c-.059.004-.113.006-.167.006z" fill="#ebe7f2"/><g fill="#f9b087"><path d="m114.189 205.365a7.221 7.221 0 0 1 -6.664-9.994l27.5-66.118a7.22 7.22 0 1 1 13.333 5.547l-27.506 66.117a7.2 7.2 0 0 1 -6.663 4.448zm27.511-75.558a2.227 2.227 0 0 0 -2.055 1.367l-27.5 66.118a2.223 2.223 0 0 0 1.2 2.9 2.254 2.254 0 0 0 2.9-1.2l27.506-66.117a2.224 2.224 0 0 0 -1.2-2.9 2.194 2.194 0 0 0 -.851-.168z"/><path d="m157.355 193.868a7.22 7.22 0 0 1 -5.106-12.325l16.459-16.458-16.458-16.458a7.219 7.219 0 1 1 10.209-10.21l21.564 21.563a7.228 7.228 0 0 1 0 10.21l-21.563 21.563a7.172 7.172 0 0 1 -5.105 2.115zm0-52.564a2.218 2.218 0 0 0 -1.57 3.788l18.226 18.225a2.5 2.5 0 0 1 0 3.536l-18.226 18.226a2.223 2.223 0 0 0 0 3.139 2.274 2.274 0 0 0 3.14 0l21.563-21.563a2.222 2.222 0 0 0 0-3.14l-21.563-21.563a2.217 2.217 0 0 0 -1.57-.652z"/><path d="m98.533 193.868a7.176 7.176 0 0 1 -5.105-2.114l-21.563-21.564a7.226 7.226 0 0 1 0-10.21l21.563-21.563a7.22 7.22 0 1 1 10.21 10.21l-16.457 16.458 16.457 16.458a7.22 7.22 0 0 1 -5.105 12.325zm0-52.564a2.216 2.216 0 0 0 -1.571.649l-21.562 21.562a2.224 2.224 0 0 0 0 3.14l21.563 21.563a2.275 2.275 0 0 0 3.141 0 2.224 2.224 0 0 0 0-3.139l-18.227-18.226a2.5 2.5 0 0 1 0-3.536l18.223-18.225a2.219 2.219 0 0 0 -1.57-3.788z"/></g><path d="m223.851 117.835a54.808 54.808 0 0 0 -60.587-49.7 68.252 68.252 0 0 0 -122.175 33.14 39.5 39.5 0 0 0 3.81 74.955 2.5 2.5 0 0 0 1.312-4.824 34.5 34.5 0 0 1 -2-65.945 2.5 2.5 0 0 0 1.686-2.132 63.247 63.247 0 0 1 114.203-31.07 2.5 2.5 0 0 0 2.357 1.01 49.828 49.828 0 0 1 56.51 46.284 2.5 2.5 0 0 0 1.374 2.079 26.915 26.915 0 0 1 -11.984 50.978 2.5 2.5 0 0 0 -2.493 2.5 2.5 2.5 0 0 0 2.5 2.5h.1a31.914 31.914 0 0 0 15.385-59.774z" fill="#846f75"/><path d="m190 115.261h-126a12.514 12.514 0 0 0 -12.5 12.5v74.649a12.514 12.514 0 0 0 12.5 12.5h126a12.514 12.514 0 0 0 12.5-12.5v-74.649a12.514 12.514 0 0 0 -12.5-12.5zm7.5 87.149a7.509 7.509 0 0 1 -7.5 7.5h-126a7.509 7.509 0 0 1 -7.5-7.5v-74.649a7.508 7.508 0 0 1 7.5-7.5h126a7.508 7.508 0 0 1 7.5 7.5z" fill="#846f75"/></svg>