<svg id="Layer_1" enable-background="new 0 0 256 256" height="512" viewBox="0 0 256 256" width="512" xmlns="http://www.w3.org/2000/svg"><g><path d="m130.679 77.764.336-.068c1.899-.385 3.481-1.187 4.701-2.384 1.591-1.558 2.396-3.611 2.396-6.1 0-1.561-.311-2.94-.924-4.098-.613-1.155-1.535-2.159-2.74-2.986-1.141-.781-2.865-1.558-5.271-2.376-2.58-.877-3.773-1.664-4.319-2.17-.664-.615-.974-1.449-.974-2.627 0-1.234.351-2.138 1.104-2.847.76-.712 1.887-1.073 3.35-1.073 1.439 0 2.48.421 3.276 1.325.666.755 1.067 1.771 1.193 3.019.128 1.277 1.232 2.276 2.514 2.276.706 0 1.389-.3 1.87-.825.474-.519.711-1.219.649-1.92-.201-2.264-.917-4.147-2.128-5.597-1.169-1.4-2.728-2.336-4.632-2.781l-.324-.076v-1.73c0-1.301-1.059-2.36-2.359-2.36-1.301 0-2.359 1.059-2.359 2.36v1.715l-.33.071c-1.826.394-3.353 1.204-4.54 2.408-1.547 1.569-2.331 3.615-2.331 6.083 0 2.35.716 4.309 2.13 5.823 1.352 1.449 3.532 2.632 6.668 3.615 2.689.931 3.892 1.751 4.429 2.277.661.647.981 1.475.981 2.532 0 1.162-.409 2.073-1.25 2.787-.894.759-2.102 1.145-3.591 1.145-1.724 0-3.056-.446-3.961-1.325-.752-.732-1.164-1.642-1.299-2.864-.14-1.266-1.245-2.258-2.518-2.258-.72 0-1.407.306-1.887.841-.479.531-.711 1.241-.636 1.947.238 2.254 1.06 4.121 2.443 5.549 1.334 1.377 3.114 2.275 5.288 2.668l.344.062v1.261c0 1.296 1.054 2.35 2.35 2.35s2.35-1.054 2.35-2.35v-1.299z" fill="#a58bc9"/><g fill="#846f75"><path d="m220.092 58.768h-49.538c-1.381 0-2.5 1.119-2.5 2.5s1.119 2.5 2.5 2.5h49.538c4.23 0 7.672 3.441 7.672 7.672v106.065c0 4.23-3.441 7.672-7.672 7.672h-184.184c-4.23 0-7.672-3.441-7.672-7.672v-106.066c0-4.23 3.441-7.672 7.672-7.672h49.538c1.381 0 2.5-1.119 2.5-2.5s-1.119-2.5-2.5-2.5h-49.538c-6.987 0-12.672 5.685-12.672 12.672v106.065c0 6.987 5.685 12.672 12.672 12.672h184.184c6.987 0 12.672-5.685 12.672-12.672v-106.065c0-6.987-5.685-12.671-12.672-12.671z"/><path d="m169.327 213.651h-24.59v-15.974c0-1.381-1.119-2.5-2.5-2.5s-2.5 1.119-2.5 2.5v15.974h-23.474v-15.974c0-1.381-1.119-2.5-2.5-2.5s-2.5 1.119-2.5 2.5v15.974h-24.59c-4.49 0-8.143 3.652-8.143 8.142s3.653 8.142 8.143 8.142h82.654c4.489 0 8.142-3.652 8.142-8.142s-3.653-8.142-8.142-8.142zm0 11.284h-82.654c-1.733 0-3.143-1.41-3.143-3.142s1.41-3.142 3.143-3.142h82.654c1.732 0 3.142 1.41 3.142 3.142s-1.409 3.142-3.142 3.142z"/><path d="m171.937 151.118c-1.381 0-2.5 1.119-2.5 2.5s1.119 2.5 2.5 2.5h8.233c1.381 0 2.5-1.119 2.5-2.5v-36.119c0-1.381-1.119-2.5-2.5-2.5h-104.341c-1.381 0-2.5 1.119-2.5 2.5v36.119c0 1.381 1.119 2.5 2.5 2.5h46.89c1.381 0 2.5-1.119 2.5-2.5s-1.119-2.5-2.5-2.5h-44.39v-31.119h99.342v31.119z"/><path d="m105.037 87.593-3.045 10.785c-.263.929.034 1.927.761 2.562.464.406 1.051.617 1.645.617.337 0 .676-.068.997-.208l14.236-6.191c2.742.673 5.553 1.014 8.37 1.014 19.329 0 35.054-15.725 35.054-35.054s-15.726-35.053-35.055-35.053-35.054 15.725-35.054 35.053c0 10.244 4.386 19.8 12.091 26.475zm22.963-56.528c16.571 0 30.054 13.482 30.054 30.053 0 16.572-13.482 30.054-30.054 30.054-2.669 0-5.333-.357-7.919-1.063-.55-.149-1.133-.107-1.655.12l-10.189 4.432 2.055-7.277c.275-.974-.064-2.018-.859-2.644-7.299-5.747-11.486-14.356-11.486-23.622-.001-16.571 13.481-30.053 30.053-30.053z"/></g><path d="m165.355 178.764c-1.216 0-2.358-.473-3.218-1.333l-15.321-15.32-5.334 7.952c-1.006 1.5-2.799 2.263-4.584 1.944-1.778-.32-3.199-1.662-3.62-3.419l-8.538-35.666c-.372-1.55.08-3.149 1.208-4.276 1.127-1.127 2.728-1.578 4.277-1.208l35.665 8.538c1.758.421 3.1 1.842 3.419 3.62s-.444 3.578-1.944 4.584l-7.951 5.334 15.32 15.321h.001c1.771 1.773 1.772 4.659 0 6.433l-6.163 6.163c-.857.859-2.001 1.333-3.217 1.333zm-18.92-23.072c.66 0 1.297.261 1.768.732l17.153 17.152 5.525-5.525-17.152-17.153c-.529-.528-.793-1.266-.721-2.01s.475-1.417 1.096-1.833l9.624-6.457-33.953-8.128 8.128 33.954 6.456-9.625c.417-.621 1.089-1.023 1.833-1.096.08-.007.162-.011.243-.011zm24.763 12.678h.01z" fill="#a58bc9"/></g></svg>