<svg xmlns="http://www.w3.org/2000/svg" xmlns:xlink="http://www.w3.org/1999/xlink" width="800" height="398" viewBox="0 0 800 398">
  <defs>
    <clipPath id="clip-MediaLab_Logo_replacement_SVG">
      <rect width="800" height="398"/>
    </clipPath>
  </defs>
  <g id="MediaLab_Logo_replacement_SVG" data-name="MediaLab Logo replacement SVG" clip-path="url(#clip-MediaLab_Logo_replacement_SVG)">
    <g id="Group_473" data-name="Group 473" transform="translate(-4.447 -56.814)">
      <g id="Group_471" data-name="Group 471" transform="translate(9.003 77.737)">
        <g id="Group_464" data-name="Group 464" transform="translate(0 0)">
          <g id="Group_458" data-name="Group 458" transform="translate(44.687)">
            <path id="Path_369" data-name="Path 369" d="M4943.293,389.645h153.226l129.043-208.312H5072.553l-68.842,110.942,24.056,13.5-53.073,33.264Z" transform="translate(-4943.293 -181.333)" fill="#000078"/>
            <path id="Path_371" data-name="Path 371" d="M4943.293,389.645h153.226l129.043-208.312H5072.553Z" transform="translate(-4650.502 -181.333)" fill="#000078"/>
            <path id="Path_370" data-name="Path 370" d="M5225.562,389.645H5072.334L4943.293,181.333H5096.3Z" transform="translate(-4782.911 -181.333)" fill="#0707a7"/>
            <path id="Path_557" data-name="Path 557" d="M5225.562,389.645H5072.334L4943.293,181.333H5096.3Z" transform="translate(-4481.804 -181.333)" fill="#0707a7"/>
          </g>
          <g id="Group_456" data-name="Group 456" transform="translate(0 49.573)">
            <path id="Path_374" data-name="Path 374" d="M22.238,0,41.594,29.035,0,27.582Z" transform="matrix(0.035, 0.999, -0.999, 0.035, 29.017, 0)" fill="#fa0"/>
            <path id="Polygon_41" data-name="Polygon 41" d="M31.5,0,63,48H0Z" transform="translate(89.445 41.504) rotate(90)" fill="#fa0"/>
          </g>
        </g>
        <g id="Group_467" data-name="Group 467" transform="translate(42.976 231.872)">
          <g id="Group_136" data-name="Group 136" transform="translate(164.239 0)">
            <g id="Group_135" data-name="Group 135" transform="translate(0)">
              <path id="Path_647" data-name="Path 647" d="M39.279-89.947,78.326-16.792l38.64-73.155L126.728,0h-9.006l-6.566-60.313L78.21,2.15,44.974-60.43,38.582,0H29.518ZM132.713-7.728h53.515V0H132.771Zm.058-40.732h51.307v7.786H132.771Zm0-38.408h53.457v7.728H132.771Zm62.928,0H220.22q2.382,0,5.781.232a55.292,55.292,0,0,1,6.479.813,44.272,44.272,0,0,1,13.393,4.794,38.99,38.99,0,0,1,10.895,8.919,41.749,41.749,0,0,1,7.321,12.667,45.29,45.29,0,0,1,2.673,15.863,44.667,44.667,0,0,1-2.44,15.02,43.866,43.866,0,0,1-6.711,12.376,40.829,40.829,0,0,1-10.168,9.3,42.929,42.929,0,0,1-12.7,5.549,31.9,31.9,0,0,1-6.595,1.1q-3.515.232-7.7.232H195.7Zm24.288,79.14q3.719,0,6.915-.232a30.523,30.523,0,0,0,5.927-.988,30.056,30.056,0,0,0,10.081-4.619,34.3,34.3,0,0,0,7.844-7.67,35.13,35.13,0,0,0,5.113-10.052,38.437,38.437,0,0,0,1.83-12,41.652,41.652,0,0,0-1.888-12.87,33.621,33.621,0,0,0-5.346-10.314,30.671,30.671,0,0,0-8.28-7.437,35.243,35.243,0,0,0-10.633-4.3,33.394,33.394,0,0,0-5.723-.755q-3.225-.174-5.84-.174H204.764V-7.728Zm54.619-79.14h9.064V0h-9.064Zm54.038-4.067L367.4,0h-9.878L328.645-69.029,299.476,0H289.6Zm44.567,4.067h9.064v79.14h39.047V0H373.211Zm88.32-4.067L500.288,0H490.41L461.532-69.029,432.363,0h-9.878ZM506.1-86.868h29.053q1.8,0,4.765.174a37.785,37.785,0,0,1,4.765.523,21.268,21.268,0,0,1,7.5,3.109,18.666,18.666,0,0,1,5.055,5.113,22.456,22.456,0,0,1,2.934,6.508,27.152,27.152,0,0,1,.959,7.176,21.5,21.5,0,0,1-.843,5.84,20.112,20.112,0,0,1-2.557,5.607,19.469,19.469,0,0,1-4.358,4.677,16.258,16.258,0,0,1-6.072,2.934,19.891,19.891,0,0,1,6.653,2.615A22.409,22.409,0,0,1,559.323-38a21.028,21.028,0,0,1,3.573,6.043,19.746,19.746,0,0,1,1.307,7.205,26.927,26.927,0,0,1-1.249,8.222,25.229,25.229,0,0,1-3.573,7.147,22.031,22.031,0,0,1-5.665,5.462A22.982,22.982,0,0,1,546.366-.7a25.647,25.647,0,0,1-4.91.581Q538.463,0,536.488,0H506.1Zm30.389,79.14h1.947q1.133,0,2.324-.058t2.324-.174a8.789,8.789,0,0,0,1.83-.349,12.575,12.575,0,0,0,7.612-5.927,20.47,20.47,0,0,0,2.615-10.517,15.564,15.564,0,0,0-3.341-9.7,15.751,15.751,0,0,0-9.152-5.752,24.641,24.641,0,0,0-3.6-.552q-2.208-.2-3.777-.2h-20.1V-7.728Zm-1.22-40.964a35.838,35.838,0,0,0,4.125-.291,16.791,16.791,0,0,0,3.951-.872,13.779,13.779,0,0,0,6.333-5.433,15.949,15.949,0,0,0,2.382-8.745,19.044,19.044,0,0,0-2.034-8.687q-2.034-4.038-7.263-5.723a13.3,13.3,0,0,0-3.719-.581q-2.44-.116-3.893-.116H515.163v30.447Z" transform="translate(0 100)" fill="#01008c"/>
            </g>
          </g>
          <path id="Path_554" data-name="Path 554" d="M17,51.57V-12.6H1.368V78.613H60.4V64.019H1.368Zm81.7-49.575L83.069,14.634V78.613H98.705V1.994h29.84V-12.6H53.49V1.994ZM158.776-12.6,143.139-.84V78.613h15.637Z" transform="translate(-1.368 25.286)" fill="#01008c"/>
        </g>
      </g>
    </g>
  </g>
</svg>
