<svg xmlns="http://www.w3.org/2000/svg" xmlns:xlink="http://www.w3.org/1999/xlink" width="784" height="374" viewBox="0 0 784 374">
  <defs>
    <clipPath id="clip-MediaLab_Logo_Yellow_Font02">
      <rect width="784" height="374"/>
    </clipPath>
  </defs>
  <g id="MediaLab_Logo_Yellow_Font02" data-name="MediaLab Logo Yellow Font02" clip-path="url(#clip-MediaLab_Logo_Yellow_Font02)">
    <g id="Group_477" data-name="Group 477" transform="translate(-6 -73)">
      <g id="Group_469" data-name="Group 469" transform="translate(-219.028 -87.714)">
        <g id="Group_362" data-name="Group 362" transform="translate(446.076 460.896)">
          <g id="Group_315" data-name="Group 315" transform="translate(0 0)">
            <g id="Group_137" data-name="Group 137" transform="translate(0 0)">
              <g id="Group_136" data-name="Group 136">
                <g id="Group_135" data-name="Group 135">
                  <path id="Path_556" data-name="Path 556" d="M9.208,60.437H19.282v-40.2L9.208,9.771ZM40.6,20.185,9.208-12.44V2.372l10.074,10.47v0L40.6,34.99l3.835-3.979,3.294-3.42,13.708-14.25v47.1H71.507V-11.938ZM92.79,26.747h44.924V16.276H92.79V3.552H82.716V60.437h61.766V49.967H92.79Zm-10.074-38.9v10.47h61.766v-10.47ZM217.175,19.152C214.8,1.6,200.381-11.938,182.879-12.14l0-.017H154.624V-1.649h28.947a24.273,24.273,0,0,1,13.96,5.235,26.133,26.133,0,0,1,9.43,15.566,27.112,27.112,0,0,1-.04,10.47,25.46,25.46,0,0,1-20.84,20.344H164.7V3.586H154.624v56.85h32.13c15.649-1.975,28.114-14.676,30.394-30.814a37.978,37.978,0,0,0,.027-10.47Zm10.42,41.284V-12.3h10.074V60.437Zm9.738-72.392h-9.4V60.088h9.4Zm-9.738-.349V60.437h10.074V-12.3Zm22.419,72.741h13.308l22.153-41.606L278.857,6.28ZM295.466.079,288.81-12.416l0,.008L282.158.079,288.81,12.57,314.3,60.437h13.311Zm52.29,49.888V-12.719H337.682V60.437h54.351V49.966Zm49.672,10.47h13.308l22.153-41.606L426.271,6.28ZM442.88.079l-6.657-12.495,0,.008L429.572.079l6.652,12.492,25.488,47.866h13.311ZM544.869,29.451a20.8,20.8,0,0,0-4.214-5.441,20.136,20.136,0,0,0-3.07-2.323,20.944,20.944,0,0,0,1.946-2.912c.03-.056.06-.108.087-.164a21.366,21.366,0,0,0,2.562-10.2,21.377,21.377,0,0,0-2.505-10.09c-.047-.091-.094-.181-.144-.269a19.926,19.926,0,0,0-17.4-10.47H485.1V-1.677h39.2a10.269,10.269,0,0,1,7.784,10.09,10.245,10.245,0,0,1-8.3,10.2H495.17V3.694H485.1V60.437h37.04a19.467,19.467,0,0,0,2.614-.178,19.464,19.464,0,0,0,2.614.178,19.925,19.925,0,0,0,17.526-10.718,21.57,21.57,0,0,0-.02-20.267Zm-15.43,20.267H495.17V29.451h34.063a10.427,10.427,0,0,1,.2,20.267Z" transform="translate(-9.208 12.719)" fill="#01008c"/>
                </g>
              </g>
            </g>
          </g>
        </g>
        <path id="Path_555" data-name="Path 555" d="M13.489,38.334V-12.6H1.368V59.8H47.125V48.216H1.368ZM76.821-1.016,64.7,9.017V59.8H76.821V-1.016H99.952V-12.6H41.771V-1.016ZM123.386-12.6,111.265-3.266V59.8h12.121Z" transform="translate(279.921 474.021)" fill="#01008c"/>
      </g>
      <g id="Group_476" data-name="Group 476" transform="translate(-1.997 73.737)">
        <g id="Group_458" data-name="Group 458" transform="translate(62.318 0)">
          <path id="Path_369" data-name="Path 369" d="M4943.293,434.539h186.249L5286.4,181.333H5100.412l-83.678,134.852,29.239,16.411-64.512,40.433Z" transform="translate(-4943.293 -181.333)" fill="#fa0"/>
          <path id="Path_371" data-name="Path 371" d="M4943.293,434.539h186.249L5286.4,181.333H5100.412Z" transform="translate(-4553.402 -181.333)" fill="#fa0"/>
          <path id="Path_370" data-name="Path 370" d="M5286.4,434.539H5100.145L4943.293,181.333h185.984Z" transform="translate(-4748.347 -181.333)" fill="#ffca00"/>
        </g>
        <g id="Group_456" data-name="Group 456" transform="translate(-24 60.256)">
          <path id="Path_374" data-name="Path 374" d="M27.03,0,50.558,35.292,0,33.526Z" transform="matrix(0.035, 0.999, -0.999, 0.035, 67.27, 0)" fill="#01008c"/>
          <path id="Polygon_41" data-name="Polygon 41" d="M39.5,0,79,60H0Z" transform="translate(141.997 52.006) rotate(90)" fill="#01008c"/>
        </g>
      </g>
    </g>
  </g>
</svg>
