<svg xmlns="http://www.w3.org/2000/svg" xmlns:xlink="http://www.w3.org/1999/xlink" width="600" height="187" viewBox="0 0 600 187">
  <defs>
    <style>
      .cls-1 {
        clip-path: url(#clip-Content-Aware_Deduplication_logo_v03);
      }

      .cls-2, .cls-4 {
        fill: #00008c;
      }

      .cls-2 {
        font-size: 58px;
        font-family: BwModelicaSS02-Bold, Bw Modelica SS02;
        font-weight: 700;
      }

      .cls-3 {
        font-family: BwModelicaSS02-Medium, Bw Modelica SS02;
        font-weight: 500;
      }
    </style>
    <clipPath id="clip-Content-Aware_Deduplication_logo_v03">
      <rect width="600" height="187"/>
    </clipPath>
  </defs>
  <g id="Content-Aware_Deduplication_logo_v03" data-name="Content-Aware Deduplication logo v03" class="cls-1">
    <g id="Group_482" data-name="Group 482" transform="translate(-201.976 -40.337)">
      <text id="Content-Aware_Deduplication" data-name="Content-Aware 
Deduplication" class="cls-2" transform="translate(354.976 118.337)"><tspan x="0" y="0">Content-Aware </tspan><tspan class="cls-3"><tspan x="0" y="71">Deduplication</tspan></tspan></text>
      <g id="Group_6" data-name="Group 6" transform="translate(205.224 42.025)">
        <path id="Path_546" data-name="Path 546" class="cls-4" d="M19.1,89.189V-45.287L3.57-62.975V105.213Zm9.157-6.677.324-119.787-3.83-3.734L24.582,86.351Z" transform="translate(90.829 62.975)"/>
        <path id="Path_543" data-name="Path 543" class="cls-4" d="M90.884,53.367V48.16c-7.965,8.847-23.019,15.286-34.869,15.286A49.244,49.244,0,0,1,26.186,53.367V-25.088A48.95,48.95,0,0,1,56.015-35.167c11.85,0,26.987,5.585,34.869,14.724v-5.6A52.064,52.064,0,0,0,56.015-39.117,53.724,53.724,0,0,0,22.236-26.995V55.138A53.59,53.59,0,0,0,56.015,67.124C68.818,67.124,81.213,61.812,90.884,53.367Zm-73.77-.545v-77.5C6.762-15.009.224-1.252.224,13.05A53.527,53.527,0,0,0,17.114,52.822Z" transform="translate(-0.224 116.188)"/>
      </g>
    </g>
  </g>
</svg>
